<mxfile host="www.draw.io" modified="2020-03-20T01:57:05.945Z" agent="Mozilla/5.0 (Macintosh; Intel Mac OS X 10_13_6) AppleWebKit/537.36 (KHTML, like Gecko) Chrome/80.0.3987.132 Safari/537.36" etag="ckJfl2t-AdDrS0bOeUV8" version="12.8.8" type="github">
  <diagram id="d-cUwv-51pwWqw412W-w" name="Page-1">
    <mxGraphModel dx="1116" dy="623" grid="1" gridSize="10" guides="1" tooltips="1" connect="1" arrows="1" fold="1" page="1" pageScale="1" pageWidth="827" pageHeight="1169" math="0" shadow="0">
      <root>
        <mxCell id="0" />
        <mxCell id="1" parent="0" />
        <mxCell id="lAO-jHd-pBpZSLis7d_x-1" value="门店品牌" style="html=1;" parent="1" vertex="1">
          <mxGeometry x="40" y="40" width="110" height="50" as="geometry" />
        </mxCell>
        <mxCell id="lAO-jHd-pBpZSLis7d_x-2" value="门店市场" style="html=1;" parent="1" vertex="1">
          <mxGeometry x="190" y="40" width="110" height="50" as="geometry" />
        </mxCell>
        <mxCell id="lAO-jHd-pBpZSLis7d_x-3" value="门店运营区" style="html=1;" parent="1" vertex="1">
          <mxGeometry x="340" y="40" width="110" height="50" as="geometry" />
        </mxCell>
        <mxCell id="lAO-jHd-pBpZSLis7d_x-5" value="门店督导区" style="html=1;" parent="1" vertex="1">
          <mxGeometry x="490" y="40" width="110" height="50" as="geometry" />
        </mxCell>
        <mxCell id="lAO-jHd-pBpZSLis7d_x-6" value="门店" style="html=1;" parent="1" vertex="1">
          <mxGeometry x="260" y="160" width="110" height="50" as="geometry" />
        </mxCell>
        <mxCell id="lAO-jHd-pBpZSLis7d_x-7" value="门店组" style="html=1;" parent="1" vertex="1">
          <mxGeometry x="70" y="250" width="110" height="50" as="geometry" />
        </mxCell>
        <mxCell id="lAO-jHd-pBpZSLis7d_x-8" value="门店类型" style="html=1;" parent="1" vertex="1">
          <mxGeometry x="220" y="290" width="110" height="50" as="geometry" />
        </mxCell>
        <mxCell id="lAO-jHd-pBpZSLis7d_x-9" value="法人类型" style="html=1;" parent="1" vertex="1">
          <mxGeometry x="380" y="290" width="110" height="50" as="geometry" />
        </mxCell>
        <mxCell id="lAO-jHd-pBpZSLis7d_x-10" value="门店部门" style="html=1;" parent="1" vertex="1">
          <mxGeometry x="520" y="290" width="110" height="50" as="geometry" />
        </mxCell>
        <mxCell id="lAO-jHd-pBpZSLis7d_x-11" value="门店操作员" style="html=1;" parent="1" vertex="1">
          <mxGeometry x="430" y="400" width="110" height="50" as="geometry" />
        </mxCell>
        <mxCell id="lAO-jHd-pBpZSLis7d_x-12" value="门店角色" style="html=1;" parent="1" vertex="1">
          <mxGeometry x="580" y="400" width="110" height="50" as="geometry" />
        </mxCell>
        <mxCell id="lAO-jHd-pBpZSLis7d_x-16" value="" style="endArrow=open;endFill=1;endSize=12;html=1;entryX=1;entryY=0.5;entryDx=0;entryDy=0;exitX=0;exitY=0.5;exitDx=0;exitDy=0;" parent="1" source="lAO-jHd-pBpZSLis7d_x-2" target="lAO-jHd-pBpZSLis7d_x-1" edge="1">
          <mxGeometry width="160" relative="1" as="geometry">
            <mxPoint x="330" y="310" as="sourcePoint" />
            <mxPoint x="490" y="310" as="targetPoint" />
          </mxGeometry>
        </mxCell>
        <mxCell id="lAO-jHd-pBpZSLis7d_x-18" value="" style="endArrow=open;endFill=1;endSize=12;html=1;exitX=0;exitY=0.5;exitDx=0;exitDy=0;" parent="1" source="lAO-jHd-pBpZSLis7d_x-3" edge="1">
          <mxGeometry width="160" relative="1" as="geometry">
            <mxPoint x="200" y="75" as="sourcePoint" />
            <mxPoint x="300" y="65" as="targetPoint" />
          </mxGeometry>
        </mxCell>
        <mxCell id="lAO-jHd-pBpZSLis7d_x-19" value="" style="endArrow=open;endFill=1;endSize=12;html=1;exitX=0;exitY=0.5;exitDx=0;exitDy=0;" parent="1" source="lAO-jHd-pBpZSLis7d_x-5" edge="1">
          <mxGeometry width="160" relative="1" as="geometry">
            <mxPoint x="210" y="85" as="sourcePoint" />
            <mxPoint x="450" y="65" as="targetPoint" />
          </mxGeometry>
        </mxCell>
        <mxCell id="lAO-jHd-pBpZSLis7d_x-20" value="" style="endArrow=open;endFill=1;endSize=12;html=1;exitX=0.5;exitY=0;exitDx=0;exitDy=0;" parent="1" source="lAO-jHd-pBpZSLis7d_x-6" edge="1">
          <mxGeometry width="160" relative="1" as="geometry">
            <mxPoint x="220" y="95" as="sourcePoint" />
            <mxPoint x="540" y="95" as="targetPoint" />
          </mxGeometry>
        </mxCell>
        <mxCell id="lAO-jHd-pBpZSLis7d_x-21" value="" style="endArrow=open;endFill=1;endSize=12;html=1;entryX=0.5;entryY=0;entryDx=0;entryDy=0;exitX=0.5;exitY=1;exitDx=0;exitDy=0;" parent="1" source="lAO-jHd-pBpZSLis7d_x-6" target="lAO-jHd-pBpZSLis7d_x-8" edge="1">
          <mxGeometry width="160" relative="1" as="geometry">
            <mxPoint x="230" y="105" as="sourcePoint" />
            <mxPoint x="190" y="105" as="targetPoint" />
          </mxGeometry>
        </mxCell>
        <mxCell id="lAO-jHd-pBpZSLis7d_x-22" value="" style="endArrow=open;endFill=1;endSize=12;html=1;entryX=0.5;entryY=0;entryDx=0;entryDy=0;exitX=0.5;exitY=1;exitDx=0;exitDy=0;" parent="1" source="lAO-jHd-pBpZSLis7d_x-6" target="lAO-jHd-pBpZSLis7d_x-9" edge="1">
          <mxGeometry width="160" relative="1" as="geometry">
            <mxPoint x="320" y="220" as="sourcePoint" />
            <mxPoint x="200" y="115" as="targetPoint" />
          </mxGeometry>
        </mxCell>
        <mxCell id="lAO-jHd-pBpZSLis7d_x-23" value="1" style="endArrow=open;html=1;endSize=12;startArrow=diamondThin;startSize=14;startFill=0;edgeStyle=orthogonalEdgeStyle;align=left;verticalAlign=bottom;entryX=0;entryY=0.5;entryDx=0;entryDy=0;" parent="1" source="lAO-jHd-pBpZSLis7d_x-7" target="lAO-jHd-pBpZSLis7d_x-6" edge="1">
          <mxGeometry x="-1" y="3" relative="1" as="geometry">
            <mxPoint x="330" y="290" as="sourcePoint" />
            <mxPoint x="250" y="185" as="targetPoint" />
          </mxGeometry>
        </mxCell>
        <mxCell id="lAO-jHd-pBpZSLis7d_x-24" value="" style="endArrow=open;endFill=1;endSize=12;html=1;entryX=1;entryY=0.5;entryDx=0;entryDy=0;" parent="1" target="lAO-jHd-pBpZSLis7d_x-6" edge="1">
          <mxGeometry width="160" relative="1" as="geometry">
            <mxPoint x="550" y="290" as="sourcePoint" />
            <mxPoint x="550" y="105" as="targetPoint" />
          </mxGeometry>
        </mxCell>
        <mxCell id="lAO-jHd-pBpZSLis7d_x-25" value="" style="endArrow=open;endFill=1;endSize=12;html=1;entryX=0.5;entryY=1;entryDx=0;entryDy=0;exitX=0.5;exitY=0;exitDx=0;exitDy=0;" parent="1" source="lAO-jHd-pBpZSLis7d_x-11" target="lAO-jHd-pBpZSLis7d_x-10" edge="1">
          <mxGeometry width="160" relative="1" as="geometry">
            <mxPoint x="560" y="300" as="sourcePoint" />
            <mxPoint x="380" y="195" as="targetPoint" />
          </mxGeometry>
        </mxCell>
        <mxCell id="lAO-jHd-pBpZSLis7d_x-26" value="" style="endArrow=open;endFill=1;endSize=12;html=1;entryX=0;entryY=0.5;entryDx=0;entryDy=0;exitX=1;exitY=0.5;exitDx=0;exitDy=0;" parent="1" source="lAO-jHd-pBpZSLis7d_x-11" target="lAO-jHd-pBpZSLis7d_x-12" edge="1">
          <mxGeometry width="160" relative="1" as="geometry">
            <mxPoint x="495" y="410" as="sourcePoint" />
            <mxPoint x="585" y="350" as="targetPoint" />
          </mxGeometry>
        </mxCell>
        <mxCell id="-JSyuyc6FNK8s3EoQKlf-1" value="PAD类别 IPad&lt;br&gt;CBOH_IPAD_3CH" style="rounded=1;whiteSpace=wrap;html=1;" parent="1" vertex="1">
          <mxGeometry x="229" y="520" width="146" height="60" as="geometry" />
        </mxCell>
        <mxCell id="-JSyuyc6FNK8s3EoQKlf-2" value="菜品类别 Marsaleclass&lt;br&gt;BD_MARSALECLASS" style="rounded=1;whiteSpace=wrap;html=1;" parent="1" vertex="1">
          <mxGeometry x="60" y="520" width="146" height="60" as="geometry" />
        </mxCell>
        <mxCell id="-JSyuyc6FNK8s3EoQKlf-4" value="辅助类别 Typoth&lt;br&gt;CBOH_TYPOTH_3CH" style="rounded=1;whiteSpace=wrap;html=1;" parent="1" vertex="1">
          <mxGeometry x="390" y="520" width="160" height="60" as="geometry" />
        </mxCell>
        <mxCell id="-JSyuyc6FNK8s3EoQKlf-5" value="菜品组 PubitemTeam&lt;br&gt;CBOH_PUBITEMTEAM_3CH" style="rounded=1;whiteSpace=wrap;html=1;" parent="1" vertex="1">
          <mxGeometry x="84" y="760" width="180" height="60" as="geometry" />
        </mxCell>
        <mxCell id="-JSyuyc6FNK8s3EoQKlf-9" value="门店品牌&amp;nbsp;Brand&lt;br&gt;CBOH_BRAND_3CH" style="rounded=1;whiteSpace=wrap;html=1;" parent="1" vertex="1">
          <mxGeometry x="780" y="750" width="130" height="60" as="geometry" />
        </mxCell>
        <mxCell id="-JSyuyc6FNK8s3EoQKlf-14" value="菜品 PubItem&lt;br&gt;CBOH_PUBITEM_3CH" style="rounded=1;whiteSpace=wrap;html=1;" parent="1" vertex="1">
          <mxGeometry x="385" y="650" width="170" height="60" as="geometry" />
        </mxCell>
        <mxCell id="-JSyuyc6FNK8s3EoQKlf-15" value="" style="endArrow=none;html=1;exitX=0.5;exitY=0;exitDx=0;exitDy=0;entryX=0.5;entryY=1;entryDx=0;entryDy=0;" parent="1" source="-JSyuyc6FNK8s3EoQKlf-14" target="-JSyuyc6FNK8s3EoQKlf-4" edge="1">
          <mxGeometry width="50" height="50" relative="1" as="geometry">
            <mxPoint x="478.5999999999999" y="647" as="sourcePoint" />
            <mxPoint x="478.5999999999999" y="580" as="targetPoint" />
          </mxGeometry>
        </mxCell>
        <mxCell id="-JSyuyc6FNK8s3EoQKlf-18" value="网站展示类别 FdItemType&lt;br&gt;FD_ITEMTYPE" style="rounded=1;whiteSpace=wrap;html=1;" parent="1" vertex="1">
          <mxGeometry x="575" y="520" width="170" height="60" as="geometry" />
        </mxCell>
        <mxCell id="-JSyuyc6FNK8s3EoQKlf-19" value="菜品标签&amp;nbsp;DishLabel&lt;br&gt;CBOH_DISH_LABEL_3CH" style="rounded=1;whiteSpace=wrap;html=1;" parent="1" vertex="1">
          <mxGeometry x="770" y="520" width="160" height="60" as="geometry" />
        </mxCell>
        <mxCell id="-JSyuyc6FNK8s3EoQKlf-20" value="附加项 Redfine&lt;br&gt;CBOH_REDEFINE_3CH" style="rounded=1;whiteSpace=wrap;html=1;" parent="1" vertex="1">
          <mxGeometry x="290" y="990" width="190" height="60" as="geometry" />
        </mxCell>
        <mxCell id="-JSyuyc6FNK8s3EoQKlf-21" value="" style="endArrow=none;html=1;entryX=0.5;entryY=1;entryDx=0;entryDy=0;exitX=1;exitY=0;exitDx=0;exitDy=0;" parent="1" source="-JSyuyc6FNK8s3EoQKlf-14" target="-JSyuyc6FNK8s3EoQKlf-19" edge="1">
          <mxGeometry width="50" height="50" relative="1" as="geometry">
            <mxPoint x="504" y="670" as="sourcePoint" />
            <mxPoint x="554" y="620" as="targetPoint" />
          </mxGeometry>
        </mxCell>
        <mxCell id="-JSyuyc6FNK8s3EoQKlf-34" value="1" style="endArrow=open;html=1;endSize=12;startArrow=diamondThin;startSize=14;startFill=0;edgeStyle=orthogonalEdgeStyle;align=left;verticalAlign=bottom;exitX=0.47;exitY=-0.047;exitDx=0;exitDy=0;exitPerimeter=0;" parent="1" source="-JSyuyc6FNK8s3EoQKlf-5" edge="1">
          <mxGeometry x="0.0722" y="40" relative="1" as="geometry">
            <mxPoint x="240" y="679.5999999999999" as="sourcePoint" />
            <mxPoint x="169" y="710" as="targetPoint" />
            <Array as="points" />
            <mxPoint x="40" y="40" as="offset" />
          </mxGeometry>
        </mxCell>
        <mxCell id="-JSyuyc6FNK8s3EoQKlf-35" value="N" style="text;html=1;align=center;verticalAlign=middle;resizable=0;points=[];autosize=1;" parent="1" vertex="1">
          <mxGeometry x="835" y="585" width="20" height="20" as="geometry" />
        </mxCell>
        <mxCell id="-JSyuyc6FNK8s3EoQKlf-36" value="1" style="text;html=1;align=center;verticalAlign=middle;resizable=0;points=[];autosize=1;" parent="1" vertex="1">
          <mxGeometry x="560" y="630" width="20" height="20" as="geometry" />
        </mxCell>
        <mxCell id="-JSyuyc6FNK8s3EoQKlf-39" value="菜品门店编码 PubItemCode&lt;br&gt;CBOH_PUBITEMCODE_3CH" style="rounded=1;whiteSpace=wrap;html=1;" parent="1" vertex="1">
          <mxGeometry x="757.5" y="650" width="170" height="55" as="geometry" />
        </mxCell>
        <mxCell id="-JSyuyc6FNK8s3EoQKlf-40" value="菜品组明细 PubitemTeamDetail&lt;br&gt;CBOH_PUBITEMTEAMDETAIL_3CH" style="rounded=1;whiteSpace=wrap;html=1;" parent="1" vertex="1">
          <mxGeometry x="60" y="650" width="210" height="60" as="geometry" />
        </mxCell>
        <mxCell id="-JSyuyc6FNK8s3EoQKlf-43" value="" style="endArrow=none;html=1;exitX=1;exitY=0.5;exitDx=0;exitDy=0;entryX=0;entryY=0.5;entryDx=0;entryDy=0;" parent="1" source="-JSyuyc6FNK8s3EoQKlf-40" target="-JSyuyc6FNK8s3EoQKlf-14" edge="1">
          <mxGeometry width="50" height="50" relative="1" as="geometry">
            <mxPoint x="430" y="720" as="sourcePoint" />
            <mxPoint x="480" y="670" as="targetPoint" />
          </mxGeometry>
        </mxCell>
        <mxCell id="-JSyuyc6FNK8s3EoQKlf-46" value="1" style="text;html=1;align=center;verticalAlign=middle;resizable=0;points=[];labelBackgroundColor=#ffffff;" parent="-JSyuyc6FNK8s3EoQKlf-43" vertex="1" connectable="0">
          <mxGeometry x="0.565" y="-2" relative="1" as="geometry">
            <mxPoint x="7.6" y="-12" as="offset" />
          </mxGeometry>
        </mxCell>
        <mxCell id="-JSyuyc6FNK8s3EoQKlf-45" value="1" style="text;html=1;align=center;verticalAlign=middle;resizable=0;points=[];autosize=1;" parent="1" vertex="1">
          <mxGeometry x="264" y="660" width="20" height="20" as="geometry" />
        </mxCell>
        <mxCell id="-JSyuyc6FNK8s3EoQKlf-47" value="" style="endArrow=none;html=1;entryX=0.5;entryY=1;entryDx=0;entryDy=0;" parent="1" source="-JSyuyc6FNK8s3EoQKlf-14" target="-JSyuyc6FNK8s3EoQKlf-2" edge="1">
          <mxGeometry width="50" height="50" relative="1" as="geometry">
            <mxPoint x="430" y="700" as="sourcePoint" />
            <mxPoint x="480" y="650" as="targetPoint" />
          </mxGeometry>
        </mxCell>
        <mxCell id="-JSyuyc6FNK8s3EoQKlf-48" value="" style="endArrow=none;html=1;entryX=0.5;entryY=1;entryDx=0;entryDy=0;exitX=0.25;exitY=0;exitDx=0;exitDy=0;" parent="1" source="-JSyuyc6FNK8s3EoQKlf-14" target="-JSyuyc6FNK8s3EoQKlf-1" edge="1">
          <mxGeometry width="50" height="50" relative="1" as="geometry">
            <mxPoint x="430" y="700" as="sourcePoint" />
            <mxPoint x="480" y="650" as="targetPoint" />
          </mxGeometry>
        </mxCell>
        <mxCell id="-JSyuyc6FNK8s3EoQKlf-49" value="" style="endArrow=none;html=1;entryX=0.472;entryY=0.997;entryDx=0;entryDy=0;entryPerimeter=0;exitX=0.75;exitY=0;exitDx=0;exitDy=0;" parent="1" source="-JSyuyc6FNK8s3EoQKlf-14" target="-JSyuyc6FNK8s3EoQKlf-18" edge="1">
          <mxGeometry width="50" height="50" relative="1" as="geometry">
            <mxPoint x="430" y="700" as="sourcePoint" />
            <mxPoint x="480" y="650" as="targetPoint" />
          </mxGeometry>
        </mxCell>
        <mxCell id="-JSyuyc6FNK8s3EoQKlf-50" value="" style="endArrow=none;html=1;entryX=1;entryY=0.5;entryDx=0;entryDy=0;exitX=1.075;exitY=1.05;exitDx=0;exitDy=0;exitPerimeter=0;" parent="1" source="-JSyuyc6FNK8s3EoQKlf-51" target="-JSyuyc6FNK8s3EoQKlf-14" edge="1">
          <mxGeometry width="50" height="50" relative="1" as="geometry">
            <mxPoint x="750" y="680" as="sourcePoint" />
            <mxPoint x="480" y="730" as="targetPoint" />
          </mxGeometry>
        </mxCell>
        <mxCell id="-JSyuyc6FNK8s3EoQKlf-51" value="N" style="text;html=1;align=center;verticalAlign=middle;resizable=0;points=[];autosize=1;" parent="1" vertex="1">
          <mxGeometry x="737.5" y="660" width="20" height="20" as="geometry" />
        </mxCell>
        <mxCell id="-JSyuyc6FNK8s3EoQKlf-52" value="1" style="text;html=1;align=center;verticalAlign=middle;resizable=0;points=[];autosize=1;" parent="1" vertex="1">
          <mxGeometry x="495" y="715" width="20" height="20" as="geometry" />
        </mxCell>
        <mxCell id="-JSyuyc6FNK8s3EoQKlf-53" value="" style="endArrow=none;html=1;entryX=0.5;entryY=1;entryDx=0;entryDy=0;" parent="1" target="-JSyuyc6FNK8s3EoQKlf-39" edge="1">
          <mxGeometry width="50" height="50" relative="1" as="geometry">
            <mxPoint x="843" y="750" as="sourcePoint" />
            <mxPoint x="845" y="730" as="targetPoint" />
          </mxGeometry>
        </mxCell>
        <mxCell id="-JSyuyc6FNK8s3EoQKlf-54" value="必选附加项 ProdcutReqAttac&lt;br&gt;CBOH_PRODCUTREQATTAC_3CH" style="rounded=1;whiteSpace=wrap;html=1;" parent="1" vertex="1">
          <mxGeometry x="60" y="890" width="200" height="60" as="geometry" />
        </mxCell>
        <mxCell id="-JSyuyc6FNK8s3EoQKlf-55" value="" style="endArrow=none;html=1;entryX=0.176;entryY=1.033;entryDx=0;entryDy=0;exitX=0.75;exitY=0;exitDx=0;exitDy=0;entryPerimeter=0;" parent="1" source="-JSyuyc6FNK8s3EoQKlf-54" target="-JSyuyc6FNK8s3EoQKlf-14" edge="1">
          <mxGeometry width="50" height="50" relative="1" as="geometry">
            <mxPoint x="430" y="820" as="sourcePoint" />
            <mxPoint x="480" y="770" as="targetPoint" />
          </mxGeometry>
        </mxCell>
        <mxCell id="-JSyuyc6FNK8s3EoQKlf-56" value="1" style="text;html=1;align=center;verticalAlign=middle;resizable=0;points=[];autosize=1;" parent="1" vertex="1">
          <mxGeometry x="404" y="715" width="20" height="20" as="geometry" />
        </mxCell>
        <mxCell id="-JSyuyc6FNK8s3EoQKlf-59" value="N" style="text;html=1;align=center;verticalAlign=middle;resizable=0;points=[];autosize=1;" parent="1" vertex="1">
          <mxGeometry x="220" y="870" width="20" height="20" as="geometry" />
        </mxCell>
        <mxCell id="-JSyuyc6FNK8s3EoQKlf-60" value="附加项设置中间表 ProductRedfine&lt;br&gt;CBOH_PRODUCTREDFINE_3CH" style="rounded=1;whiteSpace=wrap;html=1;" parent="1" vertex="1">
          <mxGeometry x="290" y="890" width="190" height="60" as="geometry" />
        </mxCell>
        <mxCell id="-JSyuyc6FNK8s3EoQKlf-62" value="" style="endArrow=none;html=1;exitX=0.5;exitY=0;exitDx=0;exitDy=0;entryX=0.341;entryY=1.033;entryDx=0;entryDy=0;entryPerimeter=0;" parent="1" source="-JSyuyc6FNK8s3EoQKlf-60" target="-JSyuyc6FNK8s3EoQKlf-14" edge="1">
          <mxGeometry width="50" height="50" relative="1" as="geometry">
            <mxPoint x="430" y="900" as="sourcePoint" />
            <mxPoint x="440" y="720" as="targetPoint" />
          </mxGeometry>
        </mxCell>
        <mxCell id="-JSyuyc6FNK8s3EoQKlf-64" value="1" style="text;html=1;align=center;verticalAlign=middle;resizable=0;points=[];autosize=1;" parent="1" vertex="1">
          <mxGeometry x="440" y="715" width="20" height="20" as="geometry" />
        </mxCell>
        <mxCell id="-JSyuyc6FNK8s3EoQKlf-65" value="N" style="text;html=1;align=center;verticalAlign=middle;resizable=0;points=[];autosize=1;" parent="1" vertex="1">
          <mxGeometry x="414" y="870" width="20" height="20" as="geometry" />
        </mxCell>
        <mxCell id="-JSyuyc6FNK8s3EoQKlf-66" value="" style="endArrow=none;html=1;entryX=0.5;entryY=1;entryDx=0;entryDy=0;" parent="1" target="-JSyuyc6FNK8s3EoQKlf-60" edge="1">
          <mxGeometry width="50" height="50" relative="1" as="geometry">
            <mxPoint x="385" y="990" as="sourcePoint" />
            <mxPoint x="200" y="960" as="targetPoint" />
          </mxGeometry>
        </mxCell>
        <mxCell id="-JSyuyc6FNK8s3EoQKlf-68" value="" style="endArrow=none;html=1;entryX=0;entryY=0.5;entryDx=0;entryDy=0;exitX=1;exitY=0.5;exitDx=0;exitDy=0;" parent="1" source="-JSyuyc6FNK8s3EoQKlf-54" target="-JSyuyc6FNK8s3EoQKlf-60" edge="1">
          <mxGeometry width="50" height="50" relative="1" as="geometry">
            <mxPoint x="150" y="1010" as="sourcePoint" />
            <mxPoint x="200" y="960" as="targetPoint" />
          </mxGeometry>
        </mxCell>
        <mxCell id="-JSyuyc6FNK8s3EoQKlf-71" value="附加项" style="text;html=1;align=center;verticalAlign=middle;resizable=0;points=[];autosize=1;" parent="1" vertex="1">
          <mxGeometry x="399" y="790" width="50" height="20" as="geometry" />
        </mxCell>
        <mxCell id="-JSyuyc6FNK8s3EoQKlf-73" value="必选附加产品 ProdReqadd&lt;br&gt;CBOH_PRODREQADD_3CH" style="rounded=1;whiteSpace=wrap;html=1;" parent="1" vertex="1">
          <mxGeometry x="510" y="890" width="180" height="60" as="geometry" />
        </mxCell>
        <mxCell id="-JSyuyc6FNK8s3EoQKlf-74" value="" style="endArrow=none;html=1;entryX=0.25;entryY=0;entryDx=0;entryDy=0;" parent="1" source="-JSyuyc6FNK8s3EoQKlf-14" target="-JSyuyc6FNK8s3EoQKlf-73" edge="1">
          <mxGeometry width="50" height="50" relative="1" as="geometry">
            <mxPoint x="680" y="800" as="sourcePoint" />
            <mxPoint x="730" y="750" as="targetPoint" />
          </mxGeometry>
        </mxCell>
        <mxCell id="-JSyuyc6FNK8s3EoQKlf-76" value="1" style="text;html=1;align=center;verticalAlign=middle;resizable=0;points=[];autosize=1;" parent="1" vertex="1">
          <mxGeometry x="555" y="660" width="20" height="20" as="geometry" />
        </mxCell>
        <mxCell id="-JSyuyc6FNK8s3EoQKlf-77" value="N" style="text;html=1;align=center;verticalAlign=middle;resizable=0;points=[];autosize=1;" parent="1" vertex="1">
          <mxGeometry x="563" y="870" width="20" height="20" as="geometry" />
        </mxCell>
        <mxCell id="-JSyuyc6FNK8s3EoQKlf-80" value="附加产品中间表 Productadditional&lt;br&gt;CBOH_PRODUCTADDITIONAL_3CH" style="rounded=1;whiteSpace=wrap;html=1;" parent="1" vertex="1">
          <mxGeometry x="717.5" y="890" width="210" height="60" as="geometry" />
        </mxCell>
        <mxCell id="-JSyuyc6FNK8s3EoQKlf-81" value="" style="endArrow=none;html=1;exitX=1;exitY=0.5;exitDx=0;exitDy=0;entryX=0;entryY=0.5;entryDx=0;entryDy=0;" parent="1" edge="1" target="-JSyuyc6FNK8s3EoQKlf-80" source="-JSyuyc6FNK8s3EoQKlf-73">
          <mxGeometry width="50" height="50" relative="1" as="geometry">
            <mxPoint x="760" y="990" as="sourcePoint" />
            <mxPoint x="710" y="920" as="targetPoint" />
          </mxGeometry>
        </mxCell>
        <mxCell id="-JSyuyc6FNK8s3EoQKlf-82" value="" style="endArrow=none;html=1;entryX=1;entryY=0.75;entryDx=0;entryDy=0;exitX=0;exitY=0;exitDx=0;exitDy=0;" parent="1" source="-JSyuyc6FNK8s3EoQKlf-80" target="-JSyuyc6FNK8s3EoQKlf-14" edge="1">
          <mxGeometry width="50" height="50" relative="1" as="geometry">
            <mxPoint x="680" y="800" as="sourcePoint" />
            <mxPoint x="730" y="750" as="targetPoint" />
          </mxGeometry>
        </mxCell>
        <mxCell id="-JSyuyc6FNK8s3EoQKlf-85" value="附加产品" style="text;html=1;align=center;verticalAlign=middle;resizable=0;points=[];labelBackgroundColor=#ffffff;" parent="-JSyuyc6FNK8s3EoQKlf-82" vertex="1" connectable="0">
          <mxGeometry x="-0.0467" y="-2" relative="1" as="geometry">
            <mxPoint as="offset" />
          </mxGeometry>
        </mxCell>
        <mxCell id="-JSyuyc6FNK8s3EoQKlf-83" value="1" style="text;html=1;align=center;verticalAlign=middle;resizable=0;points=[];autosize=1;" parent="1" vertex="1">
          <mxGeometry x="543" y="705" width="20" height="20" as="geometry" />
        </mxCell>
        <mxCell id="-JSyuyc6FNK8s3EoQKlf-84" value="N" style="text;html=1;align=center;verticalAlign=middle;resizable=0;points=[];autosize=1;" parent="1" vertex="1">
          <mxGeometry x="710" y="860" width="20" height="20" as="geometry" />
        </mxCell>
      </root>
    </mxGraphModel>
  </diagram>
</mxfile>
